<svg width="47" height="47" viewBox="0 0 47 47" fill="none" xmlns="http://www.w3.org/2000/svg">
<path d="M10.2293 22.4321V15.6588L14.684 22.4321H17.5033L11.8882 14H7.74111V22.4321H10.2293Z" fill="#BEBEBE"/>
<path d="M10.2293 24.091H7.74111V26.3027H10.2293V24.091Z" fill="#BEBEBE"/>
<path d="M10.2293 27.9616H7.74111V33.9059H10.2293V27.9616Z" fill="#BEBEBE"/>
<path d="M18.3205 27.9616H21.1855L23.487 31.4176L25.7885 27.9616H28.6527L24.7441 33.9059H22.2299L18.3205 27.9616Z" fill="#BEBEBE"/>
<path d="M36.5632 27.9616V33.9059H39.0514V27.9616H36.5632Z" fill="#BEBEBE"/>
<path d="M39.0514 26.3027H36.5632V24.091H39.0514V26.3027Z" fill="#BEBEBE"/>
<path d="M39.0514 22.4321V14H35.0858L29.4706 22.4321H32.2884L36.5632 15.931V22.4321H39.0514Z" fill="#BEBEBE"/>
<path d="M31.1977 24.091L29.7434 26.3027H26.8931L28.366 24.091H31.1977Z" fill="#BEBEBE"/>
<path d="M18.608 24.091H15.7749L17.2295 26.3027H20.0808L18.608 24.091Z" fill="#BEBEBE"/>
<path d="M47 24.0909V26.3027H0V24.0909H47Z" fill="#BEBEBE"/>
</svg>
